<?xml version="1.0" encoding="UTF-8" standalone="no"?>
<!DOCTYPE svg PUBLIC "-//W3C//DTD SVG 1.1//EN"
 "http://www.w3.org/Graphics/SVG/1.1/DTD/svg11.dtd">
<!-- Generated by graphviz version 2.47.3 (20210619.1520)
 -->
<!-- Title: dependencies Pages: 1 -->
<svg width="459pt" height="247pt"
 viewBox="0.00 0.00 459.00 246.80" xmlns="http://www.w3.org/2000/svg" xmlns:xlink="http://www.w3.org/1999/xlink">
<g id="graph0" class="graph" transform="scale(1 1) rotate(0) translate(4 242.8)">
<title>dependencies</title>
<polygon fill="white" stroke="transparent" points="-4,4 -4,-242.8 455,-242.8 455,4 -4,4"/>
<text text-anchor="middle" x="225.5" y="-8.2" font-family="sans-serif" font-size="14.00">dependencies</text>
<g id="clust1" class="cluster">
<title>cluster_AppModule</title>
<polygon fill="none" stroke="black" stroke-dasharray="1,5" points="8,-32.8 8,-230.8 443,-230.8 443,-32.8 8,-32.8"/>
</g>
<g id="clust2" class="cluster">
<title>cluster_AppModule_declarations</title>
<polygon fill="none" stroke="black" points="168,-40.8 168,-92.8 435,-92.8 435,-40.8 168,-40.8"/>
</g>
<g id="clust5" class="cluster">
<title>cluster_AppModule_imports</title>
<polygon fill="none" stroke="black" points="16,-40.8 16,-92.8 160,-92.8 160,-40.8 16,-40.8"/>
</g>
<g id="clust7" class="cluster">
<title>cluster_AppModule_bootstrap</title>
<polygon fill="none" stroke="black" points="178,-170.8 178,-222.8 302,-222.8 302,-170.8 178,-170.8"/>
</g>
<!-- AppComponent -->
<g id="node1" class="node">
<title>AppComponent</title>
<polygon fill="#ffffb3" stroke="black" points="426.94,-84.8 321.06,-84.8 321.06,-48.8 426.94,-48.8 426.94,-84.8"/>
<text text-anchor="middle" x="374" y="-62.6" font-family="Times,serif" font-size="14.00">AppComponent</text>
</g>
<!-- AppModule -->
<g id="node3" class="node">
<title>AppModule</title>
<polygon fill="#8dd3c7" stroke="black" points="281.66,-149.8 278.66,-153.8 257.66,-153.8 254.66,-149.8 198.34,-149.8 198.34,-113.8 281.66,-113.8 281.66,-149.8"/>
<text text-anchor="middle" x="240" y="-127.6" font-family="Times,serif" font-size="14.00">AppModule</text>
</g>
<!-- AppComponent&#45;&gt;AppModule -->
<g id="edge1" class="edge">
<title>AppComponent&#45;&gt;AppModule</title>
<path fill="none" stroke="black" d="M374,-84.91C374,-104.14 374,-131.8 374,-131.8 374,-131.8 291.66,-131.8 291.66,-131.8"/>
<polygon fill="black" stroke="black" points="291.66,-128.3 281.66,-131.8 291.66,-135.3 291.66,-128.3"/>
</g>
<!-- NavsideComponent -->
<g id="node2" class="node">
<title>NavsideComponent</title>
<polygon fill="#ffffb3" stroke="black" points="303.7,-84.8 176.3,-84.8 176.3,-48.8 303.7,-48.8 303.7,-84.8"/>
<text text-anchor="middle" x="240" y="-62.6" font-family="Times,serif" font-size="14.00">NavsideComponent</text>
</g>
<!-- NavsideComponent&#45;&gt;AppModule -->
<g id="edge2" class="edge">
<title>NavsideComponent&#45;&gt;AppModule</title>
<path fill="none" stroke="black" d="M240,-84.91C240,-84.91 240,-103.79 240,-103.79"/>
<polygon fill="black" stroke="black" points="236.5,-103.79 240,-113.79 243.5,-103.79 236.5,-103.79"/>
</g>
<!-- AppComponent  -->
<g id="node5" class="node">
<title>AppComponent </title>
<polygon fill="#80b1d3" stroke="black" points="294.44,-214.8 185.56,-214.8 185.56,-178.8 294.44,-178.8 294.44,-214.8"/>
<text text-anchor="middle" x="240" y="-192.6" font-family="Times,serif" font-size="14.00">AppComponent </text>
</g>
<!-- AppModule&#45;&gt;AppComponent  -->
<g id="edge4" class="edge">
<title>AppModule&#45;&gt;AppComponent </title>
<path fill="none" stroke="black" stroke-dasharray="1,5" d="M240,-149.91C240,-149.91 240,-168.79 240,-168.79"/>
<polygon fill="black" stroke="black" points="236.5,-168.79 240,-178.79 243.5,-168.79 236.5,-168.79"/>
</g>
<!-- AppRoutingModule -->
<g id="node4" class="node">
<title>AppRoutingModule</title>
<polygon fill="#8dd3c7" stroke="black" points="152.27,-84.8 149.27,-88.8 128.27,-88.8 125.27,-84.8 23.73,-84.8 23.73,-48.8 152.27,-48.8 152.27,-84.8"/>
<text text-anchor="middle" x="88" y="-62.6" font-family="Times,serif" font-size="14.00">AppRoutingModule</text>
</g>
<!-- AppRoutingModule&#45;&gt;AppModule -->
<g id="edge3" class="edge">
<title>AppRoutingModule&#45;&gt;AppModule</title>
<path fill="none" stroke="black" d="M88,-84.91C88,-104.14 88,-131.8 88,-131.8 88,-131.8 188.06,-131.8 188.06,-131.8"/>
<polygon fill="black" stroke="black" points="188.06,-135.3 198.06,-131.8 188.06,-128.3 188.06,-135.3"/>
</g>
</g>
</svg>
